# xmcd
#
# Track frame offsets: 
#        150
#        6319
#        20011
#        30338
#        40651
#        52219
#        63212
#        71875
#        83084
#        92929
#        102211
#        111906
#        118340
#        128610
#        138997
#        149580
#        159613
#        169496
#        178346
#        190220
#        200036
#
# Disc length: 2793 seconds
#
# Revision: 0
# Processed by: cddbd v1.5.2PL0 Copyright (c) Steve Scherf et al.
# Submitted via: ExactAudioCopyFreeDBPlugin 1.0
#
DISCID=3d0ae715
DTITLE=Adam Chowning - Live from the Sofa Lounge
DYEAR=1900
DGENRE=Bluegrass
TTITLE0=Booth Shot Lincoln
TTITLE1=Forked Deer
TTITLE2=Angelina Baker
TTITLE3=Maydelle's Reel
TTITLE4=Bill Cheatum
TTITLE5=Beaumont Rag
TTITLE6=Squirrel Hunters
TTITLE7=Alabama Jubilee
TTITLE8=Red Haired Boy
TTITLE9=East Tennessee Blues
TTITLE10=Jack's Guitar
TTITLE11=Booth Shot Lincoln (Rhythm Track)
TTITLE12=Forked Deer (Rhythm Track)
TTITLE13=Angelina Baker (Rhythm Track)
TTITLE14=Maydelle's Reel (Rhythm Track)
TTITLE15=Bill Cheatum (Rhythm Track)
TTITLE16=Beaumont Rag (Rhythm Track)
TTITLE17=Squirrel Hunters (Rhythm Track)
TTITLE18=Alabama Jubilee (Rhythm Track)
TTITLE19=Red Haired Boy (Rhythm Track)
TTITLE20=East Tennessee Blues (Rhythm Track)
EXTD=
EXTT0=
EXTT1=
EXTT2=
EXTT3=
EXTT4=
EXTT5=
EXTT6=
EXTT7=
EXTT8=
EXTT9=
EXTT10=
EXTT11=
EXTT12=
EXTT13=
EXTT14=
EXTT15=
EXTT16=
EXTT17=
EXTT18=
EXTT19=
EXTT20=
PLAYORDER=
